<svg width="17" height="16" viewBox="0 0 17 16" fill="none" xmlns="http://www.w3.org/2000/svg">
<path fill-rule="evenodd" clip-rule="evenodd" d="M0.78125 8C0.78125 3.73687 4.23687 0.28125 8.5 0.28125C12.7631 0.28125 16.2188 3.73687 16.2188 8C16.2188 12.2631 12.7631 15.7188 8.5 15.7188C4.23687 15.7188 0.78125 12.2631 0.78125 8ZM11.3579 6.56392C11.4054 6.50062 11.4398 6.42847 11.459 6.35171C11.4782 6.27494 11.4819 6.19511 11.4698 6.11691C11.4577 6.0387 11.4302 5.96369 11.3887 5.8963C11.3472 5.82891 11.2927 5.77049 11.2283 5.72447C11.1639 5.67846 11.091 5.64578 11.0138 5.62835C10.9366 5.61092 10.8567 5.6091 10.7788 5.62299C10.7009 5.63688 10.6265 5.66621 10.5601 5.70924C10.4937 5.75228 10.4366 5.80815 10.3921 5.87358L7.83025 9.45983L6.54458 8.17417C6.43203 8.06929 6.28316 8.01219 6.12934 8.0149C5.97551 8.01762 5.82875 8.07993 5.71997 8.18872C5.61118 8.2975 5.54887 8.44427 5.54615 8.59809C5.54344 8.75191 5.60054 8.90078 5.70542 9.01333L7.48667 10.7946C7.54762 10.8555 7.62109 10.9024 7.70199 10.9321C7.78289 10.9617 7.86927 10.9734 7.95515 10.9663C8.04102 10.9592 8.12432 10.9336 8.19927 10.891C8.27422 10.8485 8.33902 10.7902 8.38917 10.7202L11.3579 6.56392Z" fill="#1A8754"/>
</svg>
