<svg width="12" height="7" viewBox="0 0 12 7" fill="none" xmlns="http://www.w3.org/2000/svg">
<path fill-rule="evenodd" clip-rule="evenodd" d="M6.3538 6.35287C6.26005 6.4465 6.13297 6.49909 6.00047 6.49909C5.86797 6.49909 5.74088 6.4465 5.64713 6.35287L0.647134 1.35287C0.558814 1.25808 0.510732 1.13272 0.513017 1.00318C0.515303 0.87365 0.567777 0.75006 0.659386 0.658451C0.750995 0.566843 0.874585 0.514368 1.00412 0.512083C1.13365 0.509797 1.25902 0.557879 1.3538 0.646199L6.00047 5.29287L10.6471 0.646199C10.6929 0.597075 10.7481 0.557673 10.8094 0.530345C10.8708 0.503017 10.937 0.488323 11.0041 0.487138C11.0713 0.485954 11.1379 0.498303 11.2002 0.523451C11.2625 0.548598 11.319 0.586028 11.3665 0.633507C11.414 0.680986 11.4514 0.737542 11.4766 0.799801C11.5017 0.86206 11.514 0.928745 11.5129 0.995881C11.5117 1.06302 11.497 1.12923 11.4697 1.19056C11.4423 1.25189 11.4029 1.30709 11.3538 1.35287L6.3538 6.35287Z" fill="#495057"/>
</svg>
