<svg width="17" height="16" viewBox="0 0 17 16" fill="none" xmlns="http://www.w3.org/2000/svg">
<path fill-rule="evenodd" clip-rule="evenodd" d="M6.44221 1.875C7.35659 0.291667 9.64292 0.291667 10.5565 1.875L16.3792 11.9672C17.2928 13.5505 16.1496 15.5297 14.3217 15.5297H2.67705C0.849088 15.5297 -0.293287 13.5505 0.620297 11.9672L6.44142 1.875H6.44221ZM8.49975 6.02887C8.65723 6.02887 8.80825 6.09143 8.9196 6.20278C9.03095 6.31413 9.0935 6.46515 9.0935 6.62262V9.59138C9.0935 9.74885 9.03095 9.89987 8.9196 10.0112C8.80825 10.1226 8.65723 10.1851 8.49975 10.1851C8.34228 10.1851 8.19126 10.1226 8.07991 10.0112C7.96856 9.89987 7.906 9.74885 7.906 9.59138V6.62262C7.906 6.46515 7.96856 6.31413 8.07991 6.20278C8.19126 6.09143 8.34228 6.02887 8.49975 6.02887ZM8.49975 12.5601C8.65723 12.5601 8.80825 12.4976 8.9196 12.3862C9.03095 12.2749 9.0935 12.1238 9.0935 11.9664C9.0935 11.8089 9.03095 11.6579 8.9196 11.5465C8.80825 11.4352 8.65723 11.3726 8.49975 11.3726C8.34228 11.3726 8.19126 11.4352 8.07991 11.5465C7.96856 11.6579 7.906 11.8089 7.906 11.9664C7.906 12.1238 7.96856 12.2749 8.07991 12.3862C8.19126 12.4976 8.34228 12.5601 8.49975 12.5601Z" fill="#DC3545"/>
</svg>
