<svg width="10" height="10" viewBox="0 0 10 10" fill="none" xmlns="http://www.w3.org/2000/svg">
<path fill-rule="evenodd" clip-rule="evenodd" d="M2.48483 0.234835C2.63128 0.0883883 2.86872 0.0883883 3.01517 0.234835L5.26516 2.48483C5.41161 2.63128 5.41161 2.86872 5.26516 3.01517C5.11872 3.16161 4.88128 3.16161 4.73484 3.01517L3.125 1.40533V7.25C3.125 7.45711 2.95711 7.625 2.75 7.625C2.54289 7.625 2.375 7.45711 2.375 7.25V1.40533L0.765165 3.01517C0.618718 3.16161 0.381282 3.16161 0.234835 3.01517C0.0883883 2.86872 0.0883883 2.63128 0.234835 2.48483L2.48483 0.234835ZM7.25 2.375C7.45711 2.375 7.625 2.54289 7.625 2.75V8.59467L9.23483 6.98484C9.38128 6.83839 9.61872 6.83839 9.76517 6.98484C9.91161 7.13128 9.91161 7.36872 9.76517 7.51516L7.51516 9.76517C7.36872 9.91161 7.13128 9.91161 6.98484 9.76517L4.73484 7.51516C4.58839 7.36872 4.58839 7.13128 4.73484 6.98484C4.88128 6.83839 5.11872 6.83839 5.26516 6.98484L6.875 8.59467V2.75C6.875 2.54289 7.04289 2.375 7.25 2.375Z" fill="#212529"/>
</svg>
